<svg width="780" height="183" viewBox="0 0 780 183" fill="none" xmlns="http://www.w3.org/2000/svg">
<path d="M53.6798 61.4494C15.9944 73.0908 2.19101 93.121 0 101.681V183H780V80.2812C734.354 50.6068 630.792 -6.85871 581.714 0.674008C520.365 10.0899 503.933 43.4736 395.478 71.7213C287.022 99.9689 100.787 46.8975 53.6798 61.4494Z" fill="#4F46BA"/>
<path d="M114.988 129.653L115.013 129.655L117.617 129.928C117.799 129.947 117.967 130.036 118.086 130.176L118.105 130.2L118.08 130.212C118.202 130.366 118.256 130.562 118.229 130.756C117.66 135.279 115.517 139.456 112.175 142.556C108.707 145.772 104.152 147.559 99.4227 147.559C97.1256 147.562 94.8481 147.139 92.7059 146.312L92.5892 146.266C92.4139 146.201 92.273 146.068 92.1984 145.898L92.1872 145.87C92.1142 145.701 92.1101 145.51 92.175 145.338L93.2027 142.83C93.342 142.476 93.7366 142.297 94.093 142.423L94.1167 142.432C99.3696 144.46 105.319 143.318 109.447 139.488C112.075 137.074 113.769 133.812 114.234 130.274C114.283 129.908 114.6 129.643 114.963 129.652L114.988 129.653ZM176.478 119.012C178.698 119.012 180.434 119.69 181.543 120.991L181.58 121.035V119.934C181.595 119.627 181.833 119.378 182.136 119.348L182.161 119.346H185.123C185.428 119.367 185.671 119.607 185.697 119.909L185.699 119.934V136.378C185.794 138.696 185.082 140.976 183.682 142.828C182.087 144.77 179.663 145.753 176.478 145.753C172.05 145.753 168.556 142.951 167.981 138.95C167.952 138.661 168.128 138.393 168.402 138.302L168.426 138.295L171.32 137.614C171.335 137.611 171.35 137.608 171.366 137.606C171.683 137.559 171.979 137.779 172.025 138.097C172.289 140.341 174.219 142.016 176.478 141.962C179.9 141.962 181.51 140.222 181.542 136.587L181.543 136.477V135.036C180.26 136.475 178.405 137.27 176.478 137.206C171.555 137.206 167.987 133.385 167.987 128.128C167.942 125.763 168.775 123.465 170.325 121.678C171.899 119.948 174.139 118.978 176.478 119.012ZM87.3272 139.012L87.3639 139.012L87.4007 139.012C88.5823 139.026 89.5337 139.981 89.5465 141.158L89.5466 141.195C89.5466 141.207 89.5465 141.22 89.5463 141.232C89.5257 142.437 88.5319 143.398 87.3265 143.378C86.121 143.357 85.1604 142.363 85.1808 141.158C85.2009 139.977 86.155 139.031 87.3272 139.012ZM227.754 118.784L227.906 118.785C233.198 118.858 236.477 122.541 236.477 128.437C236.477 128.749 236.46 129.061 236.427 129.371C236.4 129.656 236.167 129.876 235.883 129.89L235.858 129.89H223.28C223.357 132.532 225.541 134.623 228.184 134.584C230.232 134.713 232.099 133.41 232.686 131.443C232.793 131.16 233.098 131.008 233.386 131.089L233.409 131.096L235.92 131.981C236.059 132.025 236.172 132.124 236.236 132.253L236.248 132.278C236.317 132.414 236.328 132.572 236.28 132.717C235.113 136.169 231.827 138.454 228.184 138.344C225.796 138.368 223.497 137.435 221.802 135.753C219.951 133.806 218.964 131.196 219.062 128.511C219.062 122.481 223.396 118.857 227.629 118.785L227.754 118.784ZM156.577 118.784H156.583C161.97 118.784 165.315 122.482 165.315 128.437C165.315 128.749 165.298 129.061 165.266 129.371C165.241 129.658 165.006 129.879 164.721 129.89L164.697 129.89H152.118C152.196 132.54 154.391 134.633 157.041 134.584C159.091 134.715 160.959 133.412 161.543 131.443C161.648 131.158 161.955 131.005 162.243 131.089L162.267 131.096L164.777 131.981C164.924 132.028 165.043 132.136 165.105 132.278C165.164 132.418 165.164 132.576 165.105 132.717C163.94 136.167 160.657 138.451 157.016 138.344C154.624 138.371 152.32 137.438 150.622 135.753C148.774 133.805 147.786 131.195 147.882 128.511C147.882 122.42 152.304 118.784 156.577 118.784ZM137.53 118.777C139.948 118.777 141.902 119.365 143.349 120.521C144.328 121.301 145.053 122.353 145.433 123.545L145.434 123.55C145.484 123.756 145.363 123.963 145.163 124.022L145.142 124.028L142.143 125.017C142.01 125.07 141.862 125.07 141.729 125.017C141.615 124.964 141.53 124.865 141.494 124.745L141.478 124.686C141.205 123.71 140.312 122.142 137.53 122.142C135.551 122.142 134.363 123.28 134.363 124.38L134.364 124.424C134.379 125.14 134.768 126.038 136.475 126.38L136.528 126.39L139.83 127.009C143.479 127.743 145.582 129.726 145.624 132.49L145.625 132.574L145.612 132.525L145.612 132.609C145.559 135.379 142.879 138.295 137.944 138.295C132.162 138.295 129.892 135.023 129.472 133.094C129.444 132.892 129.567 132.701 129.76 132.642L129.781 132.636L132.873 131.671C132.928 131.662 132.985 131.662 133.04 131.671C133.119 131.67 133.196 131.687 133.267 131.72L133.294 131.733C133.407 131.788 133.491 131.89 133.522 132.012C133.912 133.867 135.588 134.974 138 134.974C140.245 134.974 141.265 133.799 141.265 132.735C141.265 131.683 140.376 130.903 138.843 130.581L138.791 130.571L135.322 129.897C132.088 129.284 130.072 127.274 130.072 124.659C130.072 121.474 133.491 118.777 137.53 118.777ZM262.253 113.626H264.956C265.274 113.645 265.524 113.904 265.536 114.221L265.537 114.244V119.322H268.789C269.105 119.344 269.352 119.601 269.364 119.916L269.365 119.94V122.636L269.365 122.66C269.356 122.962 269.115 123.208 268.813 123.223L268.789 123.224H265.537V132.247C265.537 133.743 266.13 134.362 267.657 134.362C267.966 134.356 268.276 134.333 268.582 134.291L268.697 134.275C268.865 134.246 269.037 134.294 269.166 134.405C269.283 134.513 269.353 134.662 269.364 134.82L269.365 134.85V137.392C269.367 137.651 269.198 137.88 268.95 137.955C268.238 138.154 267.502 138.254 266.763 138.252L266.662 138.251C263.435 138.251 261.422 136.197 261.382 132.873L261.381 132.772V123.261H258.567C258.26 123.243 258.014 123.002 257.987 122.698L257.986 122.673V119.965C257.985 119.645 258.228 119.379 258.543 119.348L258.567 119.346L259.323 119.346L259.404 119.345C260.287 119.319 261.643 118.962 261.671 116.99L261.672 116.928V114.244C261.671 113.925 261.914 113.659 262.229 113.628L262.253 113.626ZM209.727 118.781L209.798 118.784H209.792C212.976 118.784 216.19 121.002 216.254 125.847L216.255 125.994V137.448C216.24 137.755 216.001 138.003 215.698 138.033L215.673 138.035H212.711C212.404 138.017 212.159 137.776 212.131 137.472L212.13 137.448V126.365L212.129 126.28C212.111 124.868 211.631 122.599 208.723 122.599C206.573 122.599 205.042 124.272 205.012 126.706L205.011 126.78V137.448C204.997 137.755 204.759 138.003 204.455 138.033L204.43 138.035H201.431C201.124 138.017 200.878 137.776 200.852 137.472L200.85 137.448V126.365L200.85 126.28C200.831 124.868 200.352 122.599 197.442 122.599C195.207 122.599 193.694 124.26 193.664 126.741L193.664 126.817V137.448C193.648 137.755 193.411 138.003 193.107 138.033L193.083 138.035H190.12C189.815 138.014 189.573 137.774 189.547 137.472L189.545 137.448V119.897C189.56 119.592 189.794 119.344 190.095 119.311L190.12 119.309H192.971C193.278 119.327 193.524 119.568 193.551 119.872L193.552 119.897V120.954C194.835 119.548 196.658 118.758 198.561 118.784C200.765 118.719 202.822 119.884 203.899 121.808C205.181 119.849 207.391 118.702 209.727 118.781ZM254.083 120.967C255.218 122.462 255.803 124.301 255.743 126.175L255.74 126.254V137.448C255.726 137.753 255.491 138 255.19 138.033L255.165 138.035H252.167C251.859 138.017 251.613 137.776 251.586 137.472L251.584 137.448V126.854C251.584 124.083 250.28 122.673 247.806 122.673C246.714 122.638 245.669 123.125 244.992 123.985C244.338 124.928 244 126.054 244.026 127.201L244.028 127.268V137.448C244.012 137.755 243.775 138.003 243.471 138.033L243.447 138.035H240.453C240.147 138.017 239.9 137.776 239.874 137.472L239.872 137.448V119.884C239.887 119.577 240.125 119.329 240.429 119.299L240.453 119.297H243.379C243.683 119.318 243.926 119.558 243.952 119.86L243.954 119.884V121.121C245.208 119.601 247.091 118.74 249.062 118.784C250.982 118.702 252.834 119.507 254.083 120.967ZM81.7174 130.404H103.01C103.401 130.407 103.717 130.72 103.727 131.109L103.727 131.134V133.799C103.73 134.19 103.422 134.512 103.034 134.528L103.01 134.529H81.7174C81.326 134.525 81.01 134.212 81 133.824V133.799V131.133V131.109C81.0098 130.729 81.3125 130.421 81.692 130.404L81.7174 130.404ZM176.991 122.711C174.072 122.711 172.217 124.789 172.217 128.128C172.217 131.467 174.047 133.539 176.991 133.539C179.799 133.539 181.691 131.362 181.691 128.128C181.691 124.887 179.799 122.711 176.991 122.711ZM152.25 126.324L152.242 126.39H161.042C160.828 124.039 159.171 122.573 156.69 122.544L156.614 122.544C154.428 122.508 152.566 124.107 152.259 126.258L152.25 126.324ZM223.436 126.324L223.428 126.39H232.229C232.014 124.039 230.357 122.573 227.876 122.544L227.8 122.544C225.614 122.508 223.752 124.107 223.445 126.258L223.436 126.324ZM105.675 110.064C105.859 110.13 106.009 110.269 106.089 110.447C106.163 110.628 106.163 110.83 106.089 111.01L105.162 113.484C105.033 113.851 104.632 114.044 104.265 113.917C99.4053 112.221 94.0129 113.184 90.0413 116.458C87.5662 118.53 85.8087 121.331 85.0198 124.461C84.9381 124.777 84.6535 124.998 84.3271 124.999H84.1663L81.6184 124.387C81.4284 124.342 81.2653 124.221 81.167 124.052H81.1546C81.0515 123.884 81.0224 123.681 81.0743 123.49C82.0861 119.483 84.35 115.904 87.5367 113.273C92.6039 109.102 99.484 107.884 105.675 110.064ZM96.2441 120.75H117.536C117.918 120.753 118.23 121.052 118.253 121.43L118.254 121.455V124.121C118.257 124.512 117.949 124.833 117.561 124.85L117.536 124.85H96.2441C95.8553 124.844 95.5429 124.532 95.5331 124.146L95.5328 124.121V121.48C95.5294 121.091 95.8335 120.771 96.2188 120.751L96.2441 120.75ZM111.025 112.618L111.062 112.618L111.099 112.618C112.28 112.631 113.232 113.587 113.244 114.764L113.244 114.801C113.244 114.813 113.244 114.826 113.244 114.838C113.224 116.043 112.23 117.004 111.024 116.983C109.819 116.963 108.858 115.969 108.879 114.764C108.899 113.583 109.853 112.637 111.025 112.618Z" fill="#4FB58B"/>
</svg>
